<?xml version="1.0" standalone="no"?>
<!DOCTYPE svg PUBLIC "-//W3C//DTD SVG 20010904//EN"
 "http://www.w3.org/TR/2001/REC-SVG-20010904/DTD/svg10.dtd">
<svg version="1.0" xmlns="http://www.w3.org/2000/svg"
 width="300.000000pt" height="80.000000pt" viewBox="0 0 300.000000 80.000000"
 preserveAspectRatio="xMidYMid meet">

<g transform="translate(0.000000,80.000000) scale(0.100000,-0.100000)"
fill="#000000" stroke="none">
<path d="M650 500 l0 -260 45 0 45 0 0 104 c0 152 17 186 94 186 25 0 38 -6
46 -19 5 -11 10 -76 10 -145 l0 -126 45 0 45 0 0 139 c0 159 -8 191 -54 216
-43 23 -118 16 -150 -14 -12 -11 -25 -21 -29 -21 -4 0 -7 45 -7 100 l0 100
-45 0 -45 0 0 -260z"/>
<path d="M282 709 c-51 -26 -72 -62 -72 -125 0 -69 40 -105 143 -129 83 -20
117 -43 117 -79 0 -66 -115 -77 -189 -18 l-38 31 -22 -29 c-34 -46 -26 -62 48
-101 53 -27 170 -31 218 -6 98 51 107 182 16 243 -18 12 -62 27 -99 34 -96 18
-135 67 -82 104 36 25 158 13 158 -15 0 -30 59 21 60 51 0 29 -59 53 -140 57
-62 4 -82 1 -118 -18z"/>
<path d="M2084 627 c-93 -45 -129 -119 -122 -250 5 -96 30 -152 90 -200 31
-25 48 -30 107 -35 100 -7 152 10 200 64 45 51 61 104 61 202 0 57 -5 80 -28
123 -41 79 -91 111 -184 116 -62 3 -81 0 -124 -20z m189 -85 c32 -28 47 -77
47 -153 0 -117 -39 -169 -129 -169 -94 0 -124 38 -129 165 -3 78 0 95 18 123
11 18 35 40 53 48 40 18 113 11 140 -14z"/>
<path d="M1155 587 c-59 -33 -87 -93 -83 -178 6 -115 64 -171 178 -171 83 0
144 38 169 105 25 64 7 172 -37 220 -45 50 -159 62 -227 24z m154 -76 c44 -44
32 -164 -19 -191 -29 -16 -82 -5 -106 21 -25 28 -26 124 -1 162 15 23 25 27
62 27 31 0 51 -6 64 -19z"/>
<path d="M1520 350 l0 -260 45 0 45 0 0 88 c0 49 3 91 6 95 4 3 19 -4 35 -15
21 -16 42 -21 78 -20 61 1 82 12 118 59 26 33 28 44 28 122 0 99 -17 140 -68
171 -47 29 -117 27 -155 -5 -17 -14 -33 -25 -36 -25 -3 0 -6 11 -6 25 0 23 -4
25 -45 25 l-45 0 0 -260z m234 165 c24 -24 36 -85 27 -128 -11 -48 -25 -64
-61 -72 -90 -20 -143 108 -79 189 16 20 29 26 59 26 21 0 45 -7 54 -15z"/>
<path d="M2527 513 c-4 -3 -7 -89 -7 -190 l0 -183 45 0 45 0 0 93 c0 167 18
207 90 207 62 0 70 -20 70 -172 l0 -128 45 0 45 0 0 140 c0 166 -11 203 -64
225 -20 8 -50 15 -68 15 -35 0 -98 -32 -98 -50 0 -5 -4 -10 -10 -10 -5 0 -10
14 -10 30 0 28 -2 30 -38 30 -21 0 -42 -3 -45 -7z"/>
</g>
</svg>
