<?xml version="1.0" standalone="no"?>
<!DOCTYPE svg PUBLIC "-//W3C//DTD SVG 20010904//EN"
 "http://www.w3.org/TR/2001/REC-SVG-20010904/DTD/svg10.dtd">
<svg version="1.0" xmlns="http://www.w3.org/2000/svg"
 width="1280.000000pt" height="405.000000pt" viewBox="0 0 1280.000000 405.000000"
 preserveAspectRatio="xMidYMid meet">

<g transform="translate(0.000000,405.000000) scale(0.100000,-0.100000)"
fill="#000000" stroke="none">
<path d="M2230 2555 l0 -1305 264 0 265 0 3 473 3 472 30 54 c76 138 230 207
370 167 74 -22 144 -91 174 -171 20 -54 21 -74 21 -525 l0 -470 270 0 270 0 0
548 c0 442 -3 559 -15 608 -44 190 -163 314 -376 393 -253 94 -487 59 -674
-99 -33 -28 -63 -50 -67 -50 -4 0 -8 272 -8 605 l0 605 -265 0 -265 0 0 -1305z"/>
<path d="M993 3789 c-269 -35 -517 -206 -628 -433 -133 -273 -90 -549 120
-763 92 -94 176 -152 319 -222 55 -27 157 -76 226 -110 235 -114 308 -189 298
-306 -7 -83 -45 -137 -122 -175 -110 -54 -253 -61 -396 -18 -96 29 -295 130
-378 193 l-74 55 -18 -22 c-11 -13 -19 -26 -20 -30 0 -5 -42 -77 -93 -160 -51
-84 -107 -179 -125 -210 l-31 -57 37 -29 c107 -82 327 -196 447 -230 181 -52
219 -57 460 -57 219 0 235 1 333 28 312 83 501 251 576 509 26 90 39 260 26
343 -16 106 -76 220 -162 311 -123 130 -251 212 -498 322 -296 132 -388 190
-429 269 -32 62 4 174 71 223 54 40 169 65 257 56 103 -10 246 -55 360 -113
58 -29 105 -52 106 -50 11 12 225 436 225 444 0 14 -144 96 -222 127 -128 50
-300 93 -419 105 -127 12 -155 12 -246 0z"/>
<path d="M9333 3789 c-206 -21 -435 -109 -598 -231 -275 -206 -461 -511 -511
-840 -23 -151 -14 -406 19 -549 58 -246 167 -439 349 -617 240 -236 512 -342
878 -342 226 0 387 34 555 117 298 148 542 431 641 742 49 153 59 224 59 431
0 212 -11 285 -64 443 -85 249 -243 460 -470 626 -234 172 -545 252 -858 220z
m307 -561 c74 -17 184 -74 238 -123 102 -92 184 -248 218 -414 13 -66 15 -117
12 -235 -5 -134 -9 -162 -37 -246 -77 -236 -222 -383 -430 -436 -97 -24 -314
-16 -396 16 -191 73 -332 233 -384 435 -84 327 -15 658 179 854 90 91 194 143
325 161 69 10 209 4 275 -12z"/>
<path d="M4860 2835 c-323 -53 -603 -274 -695 -550 -92 -272 -32 -583 151
-783 115 -126 262 -214 433 -259 80 -22 125 -27 271 -30 152 -4 189 -2 280 17
334 68 584 289 664 585 26 96 32 265 12 362 -35 172 -100 286 -234 414 -127
122 -262 195 -437 236 -89 20 -342 25 -445 8z m353 -478 c200 -92 268 -359
139 -546 -81 -118 -220 -171 -376 -141 -122 23 -223 109 -263 225 -20 59 -22
192 -3 251 32 100 127 197 226 228 76 24 204 17 277 -17z"/>
<path d="M7175 2844 c-135 -21 -279 -97 -375 -197 -23 -24 -27 -15 -28 68 0
39 -1 75 -1 82 -1 14 -497 19 -519 5 -10 -7 -12 -248 -10 -1173 l3 -1164 268
-3 267 -2 0 465 c0 256 2 465 5 465 3 0 29 -19 58 -42 65 -54 174 -104 263
-123 106 -23 303 -20 394 6 104 28 189 72 268 138 214 180 320 450 292 743
-17 179 -61 300 -153 423 -115 154 -241 245 -404 290 -57 16 -267 28 -328 19z
m122 -488 c143 -65 216 -212 191 -386 -28 -204 -210 -336 -414 -301 -126 22
-215 85 -266 189 -31 63 -33 73 -33 172 1 94 3 111 28 162 35 71 119 149 190
177 79 32 219 25 304 -13z"/>
<path d="M11855 2837 c-97 -25 -199 -81 -285 -156 -19 -17 -38 -31 -42 -31 -5
0 -8 36 -8 80 l0 81 -265 -1 -264 -1 -6 -32 c-3 -18 -4 -367 -3 -777 l3 -745
267 -3 267 -2 3 472 3 473 27 51 c32 60 104 128 168 158 33 15 65 21 120 21
96 0 155 -27 211 -97 68 -87 69 -95 69 -615 l0 -463 271 0 270 0 -3 573 -3
572 -24 65 c-68 185 -209 301 -442 366 -75 21 -271 27 -334 11z"/>
</g>
</svg>
